<svg width="12" height="13" fill="none" xmlns="http://www.w3.org/2000/svg"><path d="M11.92 5.62a.933.933 0 0 0-.21-.33l-5-5c-.1-.1-.21-.17-.33-.22A.995.995 0 0 0 6-.01c-.27 0-.53.11-.72.3-.09.09-.16.2-.21.32-.05.12-.08.25-.08.39 0 .26.11.52.29.7L8.59 5H1a.99.99 0 0 0-1 1c0 .26.1.51.29.7A1 1 0 0 0 1 7h7.59l-3.31 3.29c-.09.09-.16.2-.21.32-.05.12-.08.25-.08.39 0 .13.03.26.08.38s.12.23.21.33c.1.09.21.16.33.21.12.06.25.08.39.08.13 0 .26-.02.38-.08.12-.05.23-.12.33-.21l5-5.01a1 1 0 0 0 .21-1.08Z" fill="#A53DFF"/></svg>