<svg width="20" height="20" fill="none" xmlns="http://www.w3.org/2000/svg"><path d="M19 12a.99.99 0 0 0-1 1v4c0 .26-.11.51-.3.7-.19.19-.44.3-.7.3H3a1 1 0 0 1-.71-.3A.984.984 0 0 1 2 17v-4a1 1 0 0 0-.3-.71A.984.984 0 0 0 1 12a.99.99 0 0 0-1 1v4c0 .79.31 1.55.87 2.12.57.56 1.33.88 2.13.88h14c.79 0 1.55-.32 2.12-.88.56-.57.88-1.33.88-2.12v-4a1 1 0 0 0-.3-.71.984.984 0 0 0-.7-.29Zm-9.71 1.71c.09.09.2.16.33.2a.849.849 0 0 0 .76 0c.12-.04.23-.11.33-.2l4-4.01c.18-.18.29-.44.29-.7 0-.27-.11-.53-.29-.71-.19-.19-.45-.3-.71-.3-.27 0-.53.11-.71.3L11 10.59V1a1 1 0 0 0-.3-.71A.984.984 0 0 0 10 0a.99.99 0 0 0-1 1v9.59l-2.3-2.3a.995.995 0 0 0-.7-.3c-.14 0-.27.03-.39.08s-.23.12-.32.22c-.1.09-.17.2-.22.32-.05.12-.08.25-.08.39a.995.995 0 0 0 .3.7l4 4.01Z" fill="#A53DFF"/></svg>