<svg width="17" height="21" fill="none" xmlns="http://www.w3.org/2000/svg"><path d="M14 2.47a8.502 8.502 0 0 0-12 0 8.47 8.47 0 0 0-2.49 6c0 2.25.89 4.41 2.49 6l5.27 5.28a.995.995 0 0 0 .7.3c.14 0 .27-.03.39-.08s.23-.12.32-.22L14 14.42a8.447 8.447 0 0 0 2.47-5.97c0-2.24-.89-4.39-2.47-5.98Zm-1.43 10.52L8 17.58l-4.58-4.59c-.9-.9-1.51-2.05-1.76-3.3a6.451 6.451 0 0 1 2.75-6.63 6.444 6.444 0 0 1 7.17 0 6.451 6.451 0 0 1 .99 9.93ZM5 5.4c-.81.81-1.27 1.91-1.27 3.05 0 1.15.46 2.24 1.27 3.05a4.14 4.14 0 0 0 2.19 1.18c.83.17 1.7.09 2.48-.23a4.326 4.326 0 0 0 2.69-3.95 4.3 4.3 0 0 0-.33-1.65c-.21-.52-.53-1-.93-1.4-.4-.4-.87-.72-1.4-.95a4.303 4.303 0 0 0-3.3-.02c-.52.21-1 .53-1.4.92Zm4.68 4.68c-.37.39-.87.63-1.41.69a2.36 2.36 0 0 1-1.53-.38c-.45-.29-.78-.74-.94-1.26-.16-.51-.14-1.07.07-1.57a2.353 2.353 0 0 1 2.61-1.4c.53.11 1.01.4 1.35.81.34.42.53.94.53 1.48-.02.62-.28 1.21-.72 1.63h.04Z" fill="#A53DFF"/></svg>