<svg width="18" height="18" fill="none" xmlns="http://www.w3.org/2000/svg"><path d="M6 9c0-1.66 1.34-3.01 3-3.01 1.65 0 3 1.35 3 3.01 0 1.65-1.35 3-3 3-1.66 0-3-1.35-3-3ZM4.37 9c0 2.55 2.07 4.62 4.63 4.62 2.55 0 4.62-2.07 4.62-4.62a4.624 4.624 0 1 0-9.25 0Zm8.35-4.81c0 .6.48 1.08 1.08 1.08.6 0 1.08-.48 1.08-1.08 0-.6-.48-1.08-1.08-1.08-.6 0-1.08.48-1.08 1.08ZM5.36 16.32c-.88-.04-1.36-.19-1.67-.31-.42-.16-.72-.36-1.04-.67-.31-.32-.51-.62-.67-1.04-.12-.31-.27-.79-.31-1.67-.04-.95-.05-1.23-.05-3.63 0-2.41.01-2.69.05-3.64.04-.88.19-1.36.31-1.67.16-.42.36-.72.67-1.04.32-.31.62-.51 1.04-.67.31-.13.79-.27 1.67-.31.95-.05 1.23-.05 3.64-.05 2.4 0 2.68.01 3.63.05.88.04 1.36.19 1.67.31.42.16.72.36 1.04.67.31.32.51.62.67 1.04.13.31.27.79.31 1.67.05.95.05 1.23.05 3.64 0 2.4 0 2.68-.05 3.63-.04.88-.19 1.36-.31 1.67-.16.42-.36.72-.67 1.04-.32.31-.62.51-1.04.67-.31.12-.79.27-1.67.31-.95.04-1.23.05-3.63.05-2.41 0-2.69-.01-3.64-.05ZM5.28.05c-.95.04-1.61.2-2.18.42-.59.23-1.09.54-1.59 1.04S.7 2.51.47 3.1C.25 3.67.09 4.33.05 5.28.01 6.24 0 6.55 0 9c0 2.44.01 2.75.05 3.71.04.95.2 1.61.42 2.18.23.59.53 1.09 1.04 1.59.5.5 1 .81 1.59 1.04.57.23 1.23.38 2.18.42.96.04 1.27.06 3.72.06 2.44 0 2.75-.02 3.71-.06.95-.04 1.61-.19 2.18-.42a4.42 4.42 0 0 0 1.59-1.04c.5-.5.81-1 1.04-1.59.22-.57.38-1.23.42-2.18.04-.96.05-1.27.05-3.71 0-2.45-.01-2.76-.05-3.72-.04-.95-.2-1.61-.42-2.18a4.42 4.42 0 0 0-1.04-1.59c-.5-.5-1-.81-1.59-1.04-.57-.22-1.23-.38-2.18-.42C11.75.01 11.44 0 9 0 6.55 0 6.24.01 5.28.05Z" fill="#A53DFF"/></svg>