<svg width="27" height="21" fill="none" xmlns="http://www.w3.org/2000/svg"><path d="M25 12.66h-1.34V3.33c0-1.06-.42-2.08-1.17-2.83a4.004 4.004 0 0 0-2.83-1.17H6.33C5.27-.67 4.25-.25 3.5.5S2.33 2.27 2.33 3.33v9.33H1c-.36 0-.7.14-.95.39s-.39.59-.39.95v2.66c0 1.06.42 2.08 1.17 2.83s1.77 1.17 2.83 1.17h18.67c1.06 0 2.08-.42 2.83-1.17s1.17-1.77 1.17-2.83V14A1.333 1.333 0 0 0 25 12.66ZM5 3.33c0-.36.14-.69.39-.94S5.97 2 6.33 2h13.33c.36 0 .69.14.94.39s.4.58.4.94v9.33H5V3.33Zm18.66 13.33c0 .36-.14.69-.39.94s-.59.4-.94.4H3.66c-.35 0-.69-.15-.94-.4s-.39-.58-.39-.94v-1.33h21.33v1.33Z" fill="#A53DFF"/></svg>