<svg width="18" height="18" fill="none" xmlns="http://www.w3.org/2000/svg"><path d="M0 2.09C0 1.48.2.98.6.59c.41-.4.94-.6 1.58-.6.64 0 1.16.2 1.55.59.41.4.61.92.61 1.56 0 .58-.2 1.07-.59 1.45-.41.4-.94.6-1.6.6h-.02c-.63 0-1.15-.2-1.54-.6-.4-.4-.59-.9-.59-1.5Zm.22 15.9V5.85h3.86v12.14H.22Zm6 0h3.85v-6.78c0-.42.05-.75.14-.98.16-.41.41-.76.74-1.04.33-.29.74-.43 1.24-.43 1.3 0 1.95.91 1.95 2.74v6.49H18v-6.96c0-1.79-.41-3.15-1.22-4.08-.81-.93-1.88-1.39-3.22-1.39-1.49 0-2.65.67-3.49 2.02v.03h-.02l.02-.03V5.85H6.22c.02.39.03 1.59.03 3.62 0 2.02-.01 4.86-.03 8.52Z" fill="#A53DFF"/></svg>