<svg width="24" height="27" fill="none" xmlns="http://www.w3.org/2000/svg"><path d="M17.33 15.66H6.66a1.333 1.333 0 0 0-1.33 1.33 1.333 1.333 0 0 0 1.33 1.34h10.67a1.333 1.333 0 0 0 1.33-1.34 1.333 1.333 0 0 0-1.33-1.33Zm0-5.33h-8A1.333 1.333 0 0 0 8 11.66c0 .36.14.69.39.94s.58.39.94.39h8a1.333 1.333 0 0 0 1.33-1.33 1.333 1.333 0 0 0-1.33-1.33Zm5.33-8h-4V.99a1.333 1.333 0 0 0-1.33-1.33A1.333 1.333 0 0 0 16 .99v1.34h-2.67V.99A1.333 1.333 0 0 0 12-.34 1.333 1.333 0 0 0 10.66.99v1.34H8V.99C8 .64 7.85.3 7.6.05s-.58-.39-.94-.39A1.333 1.333 0 0 0 5.33.99v1.34h-4A1.333 1.333 0 0 0 0 3.66v18.67c0 1.06.42 2.08 1.17 2.83S2.93 26.33 4 26.33h16a4.014 4.014 0 0 0 4-4V3.66c0-.35-.15-.69-.4-.94s-.58-.39-.94-.39Zm-1.33 20A1.333 1.333 0 0 1 20 23.66H4a1.333 1.333 0 0 1-1.34-1.33V4.99h2.67v1.34a1.333 1.333 0 0 0 1.33 1.33c.36 0 .69-.14.94-.39s.4-.59.4-.94V4.99h2.66v1.34A1.333 1.333 0 0 0 12 7.66a1.333 1.333 0 0 0 1.33-1.33V4.99H16v1.34a1.333 1.333 0 0 0 1.33 1.33 1.333 1.333 0 0 0 1.33-1.33V4.99h2.67v17.34Z" fill="#A53DFF"/></svg>