<svg width="27" height="27" fill="none" xmlns="http://www.w3.org/2000/svg"><path d="M26.33 6.65c0-.18-.03-.35-.1-.51-.07-.17-.16-.31-.29-.44L20.29.05c-.13-.13-.27-.22-.44-.29-.16-.07-.33-.1-.51-.1-.17 0-.35.03-.51.1-.16.07-.31.16-.43.29l-3.78 3.77L.05 18.39c-.13.13-.22.28-.29.44-.07.16-.1.34-.1.51V25A1.333 1.333 0 0 0 1 26.33h5.65c.18.01.37-.02.55-.09.17-.06.33-.17.46-.3l14.5-14.57 3.78-3.71c.12-.13.22-.28.3-.44.01-.1.01-.21 0-.32v-.19l.09-.06ZM6.1 23.66H2.33v-3.77L15.57 6.65l3.77 3.77L6.1 23.66ZM21.22 8.54l-3.77-3.77 1.89-1.88 3.76 3.76-1.88 1.89Z" fill="#A53DFF"/></svg>