<svg width="20" height="19" fill="none" xmlns="http://www.w3.org/2000/svg"><path d="m17.34 6.32-14.01-7c-.55-.28-1.17-.38-1.78-.28A2.984 2.984 0 0 0-.94 1.42c-.12.6-.05 1.23.2 1.79l2.4 5.37c.05.13.08.27.08.42 0 .14-.03.28-.08.41l-2.4 5.37c-.21.45-.29.95-.25 1.45.03.5.2.98.47 1.4A3.025 3.025 0 0 0 2 19c.46-.01.92-.12 1.34-.33l14.01-7A3.012 3.012 0 0 0 19 9c0-.56-.16-1.11-.45-1.58-.29-.47-.71-.85-1.2-1.1h-.01Zm-.89 3.56-14.01 7c-.18.09-.39.12-.59.09a.934.934 0 0 1-.53-.27.967.967 0 0 1-.29-.52c-.04-.2-.02-.41.06-.6l2.39-5.37c.04-.07.06-.14.08-.21h6.9c.26 0 .51-.11.7-.3.19-.19.3-.44.3-.7a1 1 0 0 0-.3-.71.984.984 0 0 0-.7-.29h-6.9a.826.826 0 0 0-.08-.22L1.09 2.41c-.08-.19-.1-.4-.06-.6.04-.2.14-.38.29-.52.15-.15.33-.24.53-.27.2-.03.41 0 .59.09l14.01 7a.988.988 0 0 1 .39 1.41c-.09.15-.23.28-.39.36Z" fill="#FFF"/></svg>