<svg width="200" height="200" fill="none" xmlns="http://www.w3.org/2000/svg"><defs><clipPath id="a"><path fill="#fff" fill-opacity="0" d="M0 0h200v200H0z"/></clipPath></defs><path d="M0 0h200v200H0z"/><g clip-path="url(#a)"><path d="M133 84.65c0-1.47 1.22-2.65 2.73-2.65h31.53c1.51 0 2.74 1.18 2.74 2.65v31.7c0 1.46-1.23 2.65-2.74 2.65h-31.53c-1.51 0-2.73-1.19-2.73-2.65v-31.7Z" fill="#069"/><path d="M30 113h15.33v-5.09h-9.79V88.5H30V113Zm23.09 0V96.13h-5.55V113h5.55Zm-2.77-19.18c1.93 0 3.14-1.29 3.14-2.91-.04-1.66-1.21-2.91-3.11-2.91-1.89 0-3.14 1.25-3.14 2.91 0 1.62 1.21 2.91 3.07 2.91h.04ZM55.67 113h5.55v-9.43c0-.5.03-1 .18-1.36.4-1.01 1.31-2.05 2.85-2.05 2.01 0 2.81 1.54 2.81 3.81v9.02h5.55v-9.67c0-5.18-2.74-7.59-6.39-7.59-3 0-4.31 1.69-5.04 2.84h.04v-2.44h-5.55c.07 1.58 0 16.87 0 16.87Zm24.77-24.5h-5.55V113h5.55v-5.47l1.38-1.77 4.35 7.24H93l-7.31-10.48 6.39-7.12H85.4s-4.56 6.37-4.96 7.13V88.5Z" fill="#000"/><path d="M108.08 105.83c.08-.42.19-1.22.19-2.13 0-4.2-2.23-8.47-8.1-8.47-6.28 0-9.17 4.75-9.17 9.07 0 5.33 3.52 8.66 9.69 8.66 2.45 0 4.72-.35 6.57-1.08l-.74-3.57c-1.52.49-3.08.73-5.01.73-2.64 0-4.94-1.04-5.13-3.25l11.7.04Zm-11.74-3.66c.15-1.39 1.12-3.44 3.53-3.44 2.57 0 3.16 2.19 3.16 3.44h-6.69ZM122.2 89v8.17h-.07c-.82-1.14-2.53-1.91-4.79-1.91-4.35 0-8.17 3.33-8.14 9.03 0 5.27 3.46 8.71 7.76 8.71 2.34 0 4.57-.98 5.69-2.85h.11l.22 2.46H128c-.08-1.14-.15-3.12-.15-5.06V89h-5.65Zm0 16.08c0 .42-.04.84-.11 1.18-.33 1.5-1.67 2.54-3.31 2.54-2.33 0-3.86-1.81-3.86-4.65 0-2.68 1.3-4.83 3.9-4.83 1.75 0 2.97 1.15 3.31 2.57.07.31.07.66.07.97v2.22Z" fill="#000"/><path d="M143.9 112.99V96.13h-5.58v16.86h5.58Zm-2.79-19.17c1.95 0 3.16-1.29 3.16-2.91-.04-1.66-1.21-2.91-3.12-2.91-1.91 0-3.15 1.25-3.15 2.91 0 1.62 1.2 2.91 3.08 2.91h.03Zm5.87 19.17h5.58v-9.41c0-.51.03-1.01.18-1.37.4-1.01 1.32-2.05 2.86-2.05 2.02 0 2.82 1.54 2.82 3.81v9.02H164v-9.67c0-5.18-2.75-7.59-6.42-7.59-3.01 0-4.33 1.69-5.06 2.84h.04v-2.44h-5.58c.08 1.58 0 16.87 0 16.87v-.01Z" fill="#FFF"/></g></svg>